<svg width="24" height="24" viewBox="0 0 24 24" fill="none" xmlns="http://www.w3.org/2000/svg">
<path d="M12 18.6667C12.3778 18.6667 12.6947 18.5387 12.9507 18.2827C13.2058 18.0276 13.3333 17.7111 13.3333 17.3333C13.3333 16.9556 13.2058 16.6387 12.9507 16.3827C12.6947 16.1276 12.3778 16 12 16C11.6222 16 11.3058 16.1276 11.0507 16.3827C10.7947 16.6387 10.6667 16.9556 10.6667 17.3333C10.6667 17.7111 10.7947 18.0276 11.0507 18.2827C11.3058 18.5387 11.6222 18.6667 12 18.6667ZM10.6667 13.3333H13.3333V5.33333H10.6667V13.3333ZM7 24L0 17V7L7 0H17L24 7V17L17 24H7ZM8.13333 21.3333H15.8667L21.3333 15.8667V8.13333L15.8667 2.66667H8.13333L2.66667 8.13333V15.8667L8.13333 21.3333Z" fill="#222222"/>
</svg>
